<?xml version="1.0" encoding="UTF-8"?>
<svg id="Layer_1" data-name="Layer 1" xmlns="http://www.w3.org/2000/svg" viewBox="0 0 354.75 354.7" width="1em" height="1em" fill="currentColor">
  <defs>
    <style>
      .cls-1 {
        stroke-width: 0px;
      }
    </style>
  </defs>
  <path class="cls-1" d="M177.38,354.69c-52.03,0-104.07,0-156.1,0-1.62,0-3.25.05-4.86-.08-9.7-.8-15.76-6.99-16.36-16.7-.08-1.24-.05-2.49-.05-3.74,0-104.55,0-209.09,0-313.64,0-1.25-.03-2.5.05-3.74C.66,7.08,6.72.88,16.4.09c1.49-.12,2.99-.08,4.49-.08,104.32,0,208.63,0,312.95,0,1.37,0,2.75-.03,4.12.06,9.88.63,16.09,6.84,16.73,16.72.09,1.37.05,2.74.05,4.12,0,104.3,0,208.59,0,312.89,0,1.37.04,2.75-.05,4.12-.63,9.86-6.85,16.08-16.72,16.73-1.49.1-2.99.06-4.49.06-52.03,0-104.07,0-156.1,0ZM89.21,230.55c-19.47-.23-35.64,15.53-35.96,35.03-.31,19.28,15.7,35.6,35.18,35.85,19.16.25,35.44-15.64,35.73-34.89.29-19.48-15.52-35.77-34.95-36ZM230.58,266.08c.05,19.38,16.34,35.54,35.65,35.36,19.32-.18,35.19-16.1,35.27-35.39.08-19.35-16.08-35.52-35.5-35.5-19.45.01-35.48,16.09-35.43,35.54ZM124.17,88.79c.05-19.43-16.04-35.56-35.45-35.54-19.39.02-35.55,16.23-35.46,35.57.08,19.27,16.05,35.25,35.3,35.32,19.47.08,35.56-15.9,35.61-35.35ZM265.97,124.15c19.42.03,35.55-16.08,35.53-35.48-.02-19.39-16.25-35.52-35.61-35.42-19.28.1-35.24,16.07-35.31,35.32-.07,19.44,15.95,35.55,35.39,35.58ZM177.48,218.02c19.62-.08,35.33-15.94,35.23-35.56-.1-19.61-15.97-35.26-35.64-35.14-19.41.12-35.06,15.9-35.05,35.36.01,19.6,15.89,35.42,35.45,35.34Z"/>
</svg>